<svg width="100" height="25" viewBox="0 0 100 25" fill="none" xmlns="http://www.w3.org/2000/svg">
<g clip-path="url(#clip0_7300_20114)">
<path d="M13.2136 13.0078H2.5373C0.0714732 13.0078 0 10.8444 0 10.4208V1.03844C0 0.614866 0.335031 0.273274 0.750469 0.273274H13.2136C13.6291 0.273274 13.9641 0.614866 13.9641 1.03844V12.2427C13.9641 12.6662 13.6291 13.0078 13.2136 13.0078ZM8.7376 4.12643H5.22648C4.81104 4.12643 4.47601 4.46803 4.47601 4.8916V8.38951C4.47601 8.81308 4.81104 9.15467 5.22648 9.15467H8.7376C9.15304 9.15467 9.48807 8.81308 9.48807 8.38951V4.8916C9.48807 4.46803 9.15304 4.12643 8.7376 4.12643ZM23.6666 5.11022V8.06158C23.6666 8.48515 23.3315 8.82674 22.9161 8.82674H21.7368C21.3214 8.82674 20.9863 9.16834 20.9863 9.59191V15.1667C20.9863 15.5903 20.6513 15.9319 20.2359 15.9319H17.2072C16.7917 15.9319 16.4567 15.5903 16.4567 15.1667V0.765167C16.4567 0.341592 16.7917 0 17.2072 0H20.2359C20.6513 0 20.9863 0.341592 20.9863 0.765167V3.57989C20.9863 4.00346 21.3214 4.34505 21.7368 4.34505H22.9161C23.3315 4.34505 23.6666 4.68665 23.6666 5.11022Z" fill="white"/>
<path d="M30.1664 11.1632C29.0541 11.6961 27.8703 12.0195 26.6061 12.1379C26.1639 12.1789 25.7842 11.8236 25.7842 11.3727V8.86318C25.7842 8.4806 26.0611 8.16178 26.4319 8.10712C27.5487 7.94771 28.518 7.53325 29.3355 6.85917C29.9475 6.35362 30.4255 5.79796 30.765 5.1922C31.0464 4.6912 30.6622 4.07178 30.0994 4.07178H26.8563C26.4408 4.07178 26.1058 3.73019 26.1058 3.30661V1.03844C26.1058 0.614866 26.4408 0.273274 26.8563 0.273274H40.1503C40.5657 0.273274 40.9008 0.614866 40.9008 1.03844V3.30661C40.9008 3.73019 40.5657 4.07178 40.1503 4.07178H36.4516C36.0987 4.07178 35.7949 4.31773 35.719 4.66843C35.7145 4.69576 35.7056 4.72308 35.7011 4.75496C35.6252 5.09656 35.786 5.44726 36.0897 5.60211L40.9588 8.15267C41.3475 8.35762 41.486 8.84952 41.2581 9.2321L40.0118 11.3272C39.8063 11.6733 39.3686 11.7963 39.0157 11.605L34.1063 8.91328C33.8115 8.75387 33.4586 8.81308 33.2174 9.04992C32.3508 9.90162 31.3323 10.6076 30.1664 11.1678V11.1632ZM43.715 12.8985H46.6633C47.0787 12.8985 47.4138 13.2401 47.4138 13.6637V22.5724C47.4138 22.996 47.0787 23.3376 46.6633 23.3376H31.2653C26.8786 23.3376 26.9367 19.3478 26.9367 18.9242V13.6591C26.9367 13.2356 27.2717 12.894 27.6872 12.894H30.6354C31.0509 12.894 31.3859 13.2356 31.3859 13.6591C31.3859 14.0827 31.7209 14.4243 32.1364 14.4243H42.2141C42.6295 14.4243 42.9646 14.0827 42.9646 13.6591C42.9646 13.2356 43.2996 12.894 43.715 12.894V12.8985ZM42.9646 18.9106V18.7739C42.9646 18.3503 42.6295 18.0087 42.2141 18.0087H32.1364C31.7209 18.0087 31.3859 18.3503 31.3859 18.7739V18.9106C31.3859 19.3341 31.7209 19.6757 32.1364 19.6757H42.2141C42.6295 19.6757 42.9646 19.3341 42.9646 18.9106ZM47.4138 0.765167V11.3135C47.4138 11.7371 47.0787 12.0787 46.6633 12.0787H43.6346C43.2192 12.0787 42.8842 11.7371 42.8842 11.3135V0.765167C42.8842 0.341592 43.2192 0 43.6346 0H46.6633C47.0787 0 47.4138 0.341592 47.4138 0.765167Z" fill="white"/>
<path d="M61.458 0.546548H64.4063C64.8217 0.546548 65.1568 0.88814 65.1568 1.31171V21.4793C65.1568 21.9029 64.8217 22.2445 64.4063 22.2445H55.2667C52.162 22.2445 51.8359 19.1656 51.8359 18.7466V1.31171C51.8359 0.88814 52.171 0.546548 52.5864 0.546548H55.5347C55.9501 0.546548 56.2851 0.88814 56.2851 1.31171V6.64055C56.2851 7.06413 56.6202 7.40572 57.0356 7.40572H59.9571C60.3725 7.40572 60.7075 7.06413 60.7075 6.64055V1.31171C60.7075 0.88814 61.0426 0.546548 61.458 0.546548ZM60.7075 17.2436V12.3793C60.7075 11.9557 60.3725 11.6141 59.9571 11.6141H57.0356C56.6202 11.6141 56.2851 11.9557 56.2851 12.3793V17.2436C56.2851 17.6672 56.6202 18.0087 57.0356 18.0087H59.9571C60.3725 18.0087 60.7075 17.6672 60.7075 17.2436ZM74.484 13.0078H73.3047C72.8893 13.0078 72.5542 13.3494 72.5542 13.773V22.5724C72.5542 22.996 72.2192 23.3376 71.8038 23.3376H68.7751C68.3597 23.3376 68.0246 22.996 68.0246 22.5724V0.765167C68.0246 0.341592 68.3597 0 68.7751 0H71.8038C72.2192 0 72.5542 0.341592 72.5542 0.765167V7.76098C72.5542 8.18455 72.8893 8.52614 73.3047 8.52614H74.484C74.8995 8.52614 75.2345 8.86774 75.2345 9.29131V12.2427C75.2345 12.6662 74.8995 13.0078 74.484 13.0078Z" fill="white"/>
<path d="M100 19.0744V21.7524C100 22.176 99.6651 22.5176 99.2496 22.5176H77.5932C77.1778 22.5176 76.8428 22.176 76.8428 21.7524V19.0744C76.8428 18.6508 77.1778 18.3092 77.5932 18.3092H85.366C85.7814 18.3092 86.1164 17.9676 86.1164 17.544V16.4509C86.1164 16.0273 85.7814 15.6858 85.366 15.6858H81.56C77.8702 15.6858 78.1293 12.6069 78.1293 12.1879V6.94099C78.1293 6.51742 78.4643 6.17583 78.8798 6.17583H93.5139C93.9293 6.17583 94.2644 5.83424 94.2644 5.41066V5.35601C94.2644 4.93243 93.9293 4.59084 93.5139 4.59084H78.8262C78.4107 4.59084 78.0757 4.24925 78.0757 3.82567V1.31155C78.0757 0.887979 78.4107 0.546387 78.8262 0.546387H97.9899C98.4054 0.546387 98.7404 0.887979 98.7404 1.31155V9.26382C98.7404 9.6874 98.4054 10.029 97.9899 10.029H83.3558C82.9403 10.029 82.6053 10.3706 82.6053 10.7942V10.8761C82.6053 11.2997 82.9403 11.6413 83.3558 11.6413H98.2579C98.6734 11.6413 99.0084 11.9829 99.0084 12.4065V14.9206C99.0084 15.3442 98.6734 15.6858 98.2579 15.6858H91.4769C91.0615 15.6858 90.7265 16.0273 90.7265 16.4509V17.544C90.7265 17.9676 91.0615 18.3092 91.4769 18.3092H99.2496C99.6651 18.3092 100 18.6508 100 19.0744Z" fill="white"/>
<path d="M9.15326 18.5004C9.46596 17.8263 9.04605 14.6199 9.23814 14.4013C9.73398 13.8365 13.2406 14.0597 13.9732 14.2601C14.7952 14.4833 14.2904 15.6265 14.1832 16.3233C14.0045 17.5257 13.4774 19.0379 13.0709 20.1719C15.5367 20.9963 18.275 20.6547 20.4996 19.2246C21.1295 19.3703 21.7996 23.3191 20.3924 23.8475C18.342 24.6126 14.1966 24.6719 12.3696 23.4603C11.9497 23.1825 11.1143 22.5449 10.8508 22.3581C10.6631 22.2261 9.5687 23.3374 8.78249 23.8019C5.69574 25.6374 3.95805 25.182 1.73344 23.7199C-0.49116 22.2579 0.178901 19.384 1.50116 18.0176C3.45327 15.9954 6.76784 17.7945 9.14433 18.5095L9.15326 18.5004ZM4.81126 19.589C3.72576 19.8395 3.62302 21.4244 4.85146 21.7524C5.92803 22.0393 7.10734 21.47 7.96949 20.8415C7.29496 19.9032 5.95483 19.3293 4.81126 19.589Z" fill="white"/>
</g>
<defs>
<clipPath id="clip0_7300_20114">
<rect width="100" height="25" fill="white"/>
</clipPath>
</defs>
</svg>
